<mxfile host="app.diagrams.net" modified="2022-04-04T14:12:13.611Z" agent="5.0 (Macintosh; Intel Mac OS X 10_15_7) AppleWebKit/537.36 (KHTML, like Gecko) Chrome/100.0.4896.60 Safari/537.36" etag="KMRBwxrVjUuJhN-hnEFY" version="16.6.6" type="github">
  <diagram id="6GHfcMhMbuXQ1_ipRwLy" name="Page-1">
    <mxGraphModel dx="2755" dy="1154" grid="1" gridSize="10" guides="1" tooltips="1" connect="1" arrows="1" fold="1" page="1" pageScale="1" pageWidth="827" pageHeight="1169" math="0" shadow="0">
      <root>
        <mxCell id="0" />
        <mxCell id="1" parent="0" />
        <mxCell id="GHACeBnOp6mW1_dkJk2d-8" style="edgeStyle=orthogonalEdgeStyle;curved=1;rounded=0;orthogonalLoop=1;jettySize=auto;html=1;startArrow=classic;startFill=1;" edge="1" parent="1" source="GHACeBnOp6mW1_dkJk2d-1" target="GHACeBnOp6mW1_dkJk2d-2">
          <mxGeometry relative="1" as="geometry" />
        </mxCell>
        <mxCell id="GHACeBnOp6mW1_dkJk2d-1" value="&lt;span style=&quot;color: rgb(22 , 25 , 31) ; font-family: &amp;#34;amazon ember&amp;#34; , &amp;#34;helvetica neue&amp;#34; , &amp;#34;roboto&amp;#34; , &amp;#34;arial&amp;#34; , sans-serif ; font-size: 14px ; background-color: rgb(255 , 255 , 255)&quot;&gt;dualstack.ozonev2-proto-webapp-alb-1287598946.eu-west-2.elb.amazonaws.com&lt;/span&gt;" style="sketch=0;outlineConnect=0;fontColor=#232F3E;gradientColor=none;fillColor=#4D27AA;strokeColor=none;dashed=0;verticalLabelPosition=bottom;verticalAlign=top;align=center;html=1;fontSize=12;fontStyle=0;aspect=fixed;pointerEvents=1;shape=mxgraph.aws4.application_load_balancer;" vertex="1" parent="1">
          <mxGeometry x="375" y="200" width="78" height="78" as="geometry" />
        </mxCell>
        <mxCell id="GHACeBnOp6mW1_dkJk2d-2" value="&lt;span style=&quot;color: rgb(22 , 25 , 31) ; font-family: &amp;#34;amazon ember&amp;#34; , &amp;#34;helvetica neue&amp;#34; , &amp;#34;roboto&amp;#34; , &amp;#34;arial&amp;#34; , sans-serif ; font-size: 14px ; background-color: rgb(255 , 255 , 255)&quot;&gt;proto.ov2.link&lt;/span&gt;" style="sketch=0;outlineConnect=0;fontColor=#232F3E;gradientColor=none;fillColor=#4D27AA;strokeColor=none;dashed=0;verticalLabelPosition=bottom;verticalAlign=top;align=center;html=1;fontSize=12;fontStyle=0;aspect=fixed;pointerEvents=1;shape=mxgraph.aws4.hosted_zone;" vertex="1" parent="1">
          <mxGeometry x="375" y="60" width="78" height="77" as="geometry" />
        </mxCell>
        <mxCell id="GHACeBnOp6mW1_dkJk2d-5" style="edgeStyle=orthogonalEdgeStyle;rounded=0;orthogonalLoop=1;jettySize=auto;html=1;curved=1;startArrow=classic;startFill=1;" edge="1" parent="1" source="GHACeBnOp6mW1_dkJk2d-3" target="GHACeBnOp6mW1_dkJk2d-1">
          <mxGeometry relative="1" as="geometry" />
        </mxCell>
        <mxCell id="GHACeBnOp6mW1_dkJk2d-3" value="&lt;span style=&quot;color: rgb(22 , 25 , 31) ; font-family: &amp;#34;amazon ember&amp;#34; , &amp;#34;helvetica neue&amp;#34; , &amp;#34;roboto&amp;#34; , &amp;#34;arial&amp;#34; , sans-serif ; font-size: 14px ; background-color: rgb(241 , 250 , 255)&quot;&gt;ELB app/ozonev2-proto-webapp-alb/e0c14a96abbbaa20&lt;br&gt;3.8.74.65&lt;br&gt;&lt;/span&gt;" style="sketch=0;points=[[0,0,0],[0.25,0,0],[0.5,0,0],[0.75,0,0],[1,0,0],[0,1,0],[0.25,1,0],[0.5,1,0],[0.75,1,0],[1,1,0],[0,0.25,0],[0,0.5,0],[0,0.75,0],[1,0.25,0],[1,0.5,0],[1,0.75,0]];outlineConnect=0;fontColor=#232F3E;gradientColor=#945DF2;gradientDirection=north;fillColor=#5A30B5;strokeColor=#ffffff;dashed=0;verticalLabelPosition=bottom;verticalAlign=top;align=center;html=1;fontSize=12;fontStyle=0;aspect=fixed;shape=mxgraph.aws4.resourceIcon;resIcon=mxgraph.aws4.elastic_load_balancing;" vertex="1" parent="1">
          <mxGeometry x="160" y="420" width="78" height="78" as="geometry" />
        </mxCell>
        <mxCell id="GHACeBnOp6mW1_dkJk2d-7" style="edgeStyle=orthogonalEdgeStyle;rounded=0;orthogonalLoop=1;jettySize=auto;html=1;curved=1;startArrow=classic;startFill=1;" edge="1" parent="1" source="GHACeBnOp6mW1_dkJk2d-4">
          <mxGeometry relative="1" as="geometry">
            <mxPoint x="420" y="280" as="targetPoint" />
          </mxGeometry>
        </mxCell>
        <mxCell id="GHACeBnOp6mW1_dkJk2d-4" value="&lt;span style=&quot;color: rgb(22 , 25 , 31) ; font-family: &amp;#34;amazon ember&amp;#34; , &amp;#34;helvetica neue&amp;#34; , &amp;#34;roboto&amp;#34; , &amp;#34;arial&amp;#34; , sans-serif ; font-size: 14px ; background-color: rgb(241 , 250 , 255)&quot;&gt;ELB app/ozonev2-proto-webapp-alb/e0c14a96abbbaa20&lt;br&gt;18.168.231.42&lt;br&gt;&lt;/span&gt;" style="sketch=0;points=[[0,0,0],[0.25,0,0],[0.5,0,0],[0.75,0,0],[1,0,0],[0,1,0],[0.25,1,0],[0.5,1,0],[0.75,1,0],[1,1,0],[0,0.25,0],[0,0.5,0],[0,0.75,0],[1,0.25,0],[1,0.5,0],[1,0.75,0]];outlineConnect=0;fontColor=#232F3E;gradientColor=#945DF2;gradientDirection=north;fillColor=#5A30B5;strokeColor=#ffffff;dashed=0;verticalLabelPosition=bottom;verticalAlign=top;align=center;html=1;fontSize=12;fontStyle=0;aspect=fixed;shape=mxgraph.aws4.resourceIcon;resIcon=mxgraph.aws4.elastic_load_balancing;" vertex="1" parent="1">
          <mxGeometry x="590" y="420" width="78" height="78" as="geometry" />
        </mxCell>
        <mxCell id="GHACeBnOp6mW1_dkJk2d-9" style="edgeStyle=orthogonalEdgeStyle;curved=1;rounded=0;orthogonalLoop=1;jettySize=auto;html=1;startArrow=classic;startFill=1;" edge="1" parent="1" source="GHACeBnOp6mW1_dkJk2d-10" target="GHACeBnOp6mW1_dkJk2d-11">
          <mxGeometry relative="1" as="geometry" />
        </mxCell>
        <mxCell id="GHACeBnOp6mW1_dkJk2d-10" value="&lt;span style=&quot;color: rgb(22 , 25 , 31) ; font-family: &amp;#34;amazon ember&amp;#34; , &amp;#34;helvetica neue&amp;#34; , &amp;#34;roboto&amp;#34; , &amp;#34;arial&amp;#34; , sans-serif ; font-size: 14px ; background-color: rgb(255 , 255 , 255)&quot;&gt;dualstack.ozonev2-proto-microservices-alb-1430254722.eu-west-2.elb.amazonaws.com.&lt;/span&gt;" style="sketch=0;outlineConnect=0;fontColor=#232F3E;gradientColor=none;fillColor=#4D27AA;strokeColor=none;dashed=0;verticalLabelPosition=bottom;verticalAlign=top;align=center;html=1;fontSize=12;fontStyle=0;aspect=fixed;pointerEvents=1;shape=mxgraph.aws4.application_load_balancer;" vertex="1" parent="1">
          <mxGeometry x="365" y="760" width="78" height="78" as="geometry" />
        </mxCell>
        <mxCell id="GHACeBnOp6mW1_dkJk2d-11" value="&lt;span style=&quot;color: rgb(22 , 25 , 31) ; font-family: &amp;#34;amazon ember&amp;#34; , &amp;#34;helvetica neue&amp;#34; , &amp;#34;roboto&amp;#34; , &amp;#34;arial&amp;#34; , sans-serif ; font-size: 14px ; background-color: rgb(255 , 255 , 255)&quot;&gt;api.proto.ov2.link&lt;/span&gt;" style="sketch=0;outlineConnect=0;fontColor=#232F3E;gradientColor=none;fillColor=#4D27AA;strokeColor=none;dashed=0;verticalLabelPosition=bottom;verticalAlign=top;align=center;html=1;fontSize=12;fontStyle=0;aspect=fixed;pointerEvents=1;shape=mxgraph.aws4.hosted_zone;" vertex="1" parent="1">
          <mxGeometry x="365" y="620" width="78" height="77" as="geometry" />
        </mxCell>
        <mxCell id="GHACeBnOp6mW1_dkJk2d-12" style="edgeStyle=orthogonalEdgeStyle;rounded=0;orthogonalLoop=1;jettySize=auto;html=1;curved=1;startArrow=classic;startFill=1;" edge="1" parent="1" source="GHACeBnOp6mW1_dkJk2d-13" target="GHACeBnOp6mW1_dkJk2d-10">
          <mxGeometry relative="1" as="geometry" />
        </mxCell>
        <mxCell id="GHACeBnOp6mW1_dkJk2d-13" value="&lt;span style=&quot;color: rgb(22 , 25 , 31) ; font-family: &amp;#34;amazon ember&amp;#34; , &amp;#34;helvetica neue&amp;#34; , &amp;#34;roboto&amp;#34; , &amp;#34;arial&amp;#34; , sans-serif ; font-size: 14px ; background-color: rgb(241 , 250 , 255)&quot;&gt;ELB app/ozonev2-proto-microservices-alb/99599b39b0ab57d1&lt;br&gt;35.178.72.57&lt;br&gt;&lt;/span&gt;" style="sketch=0;points=[[0,0,0],[0.25,0,0],[0.5,0,0],[0.75,0,0],[1,0,0],[0,1,0],[0.25,1,0],[0.5,1,0],[0.75,1,0],[1,1,0],[0,0.25,0],[0,0.5,0],[0,0.75,0],[1,0.25,0],[1,0.5,0],[1,0.75,0]];outlineConnect=0;fontColor=#232F3E;gradientColor=#945DF2;gradientDirection=north;fillColor=#5A30B5;strokeColor=#ffffff;dashed=0;verticalLabelPosition=bottom;verticalAlign=top;align=center;html=1;fontSize=12;fontStyle=0;aspect=fixed;shape=mxgraph.aws4.resourceIcon;resIcon=mxgraph.aws4.elastic_load_balancing;" vertex="1" parent="1">
          <mxGeometry x="150" y="980" width="78" height="78" as="geometry" />
        </mxCell>
        <mxCell id="GHACeBnOp6mW1_dkJk2d-14" style="edgeStyle=orthogonalEdgeStyle;rounded=0;orthogonalLoop=1;jettySize=auto;html=1;curved=1;startArrow=classic;startFill=1;" edge="1" parent="1" source="GHACeBnOp6mW1_dkJk2d-15">
          <mxGeometry relative="1" as="geometry">
            <mxPoint x="410" y="840" as="targetPoint" />
          </mxGeometry>
        </mxCell>
        <mxCell id="GHACeBnOp6mW1_dkJk2d-15" value="&lt;span style=&quot;color: rgb(22 , 25 , 31) ; font-family: &amp;#34;amazon ember&amp;#34; , &amp;#34;helvetica neue&amp;#34; , &amp;#34;roboto&amp;#34; , &amp;#34;arial&amp;#34; , sans-serif ; font-size: 14px ; background-color: rgb(241 , 250 , 255)&quot;&gt;ELB app/ozonev2-proto-microservices-alb/99599b39b0ab57d1&lt;br&gt;35.178.84.206&lt;br&gt;&lt;/span&gt;" style="sketch=0;points=[[0,0,0],[0.25,0,0],[0.5,0,0],[0.75,0,0],[1,0,0],[0,1,0],[0.25,1,0],[0.5,1,0],[0.75,1,0],[1,1,0],[0,0.25,0],[0,0.5,0],[0,0.75,0],[1,0.25,0],[1,0.5,0],[1,0.75,0]];outlineConnect=0;fontColor=#232F3E;gradientColor=#945DF2;gradientDirection=north;fillColor=#5A30B5;strokeColor=#ffffff;dashed=0;verticalLabelPosition=bottom;verticalAlign=top;align=center;html=1;fontSize=12;fontStyle=0;aspect=fixed;shape=mxgraph.aws4.resourceIcon;resIcon=mxgraph.aws4.elastic_load_balancing;" vertex="1" parent="1">
          <mxGeometry x="580" y="980" width="78" height="78" as="geometry" />
        </mxCell>
      </root>
    </mxGraphModel>
  </diagram>
</mxfile>
